<svg width="24" height="24" viewBox="0 0 24 24" fill="none" xmlns="http://www.w3.org/2000/svg">
<mask id="mask0_3166_64495" style="mask-type:alpha" maskUnits="userSpaceOnUse" x="3" y="3" width="18" height="18">
<path d="M12.0008 3C8.69175 3 6.00075 5.691 6.00075 9C6.00075 12.3075 8.69175 15 12.0008 15C15.3083 15 18.0007 12.3075 18.0007 9C18.0007 5.6925 15.3083 3 12.0008 3V3ZM18.0383 13.431L20.9062 19.125L16.8307 18.1065L15.0008 21L12.7957 16.4565C14.9437 16.2285 16.8188 15.0855 18.0383 13.431V13.431ZM5.96325 13.431C7.18125 15.0855 9.05475 16.2285 11.2043 16.4565L9.00075 21L7.17075 18.1065L3.09375 19.125L5.96325 13.431ZM11.9977 7.5C12.8272 7.5 13.4977 8.1705 13.4977 9C13.4977 9.8295 12.8272 10.5 11.9977 10.5C11.1697 10.5 10.4977 9.8295 10.4977 9C10.4977 8.1705 11.1697 7.5 11.9977 7.5Z" fill="white"/>
</mask>
<g mask="url(#mask0_3166_64495)">
<path d="M12.0008 3C8.69175 3 6.00075 5.691 6.00075 9C6.00075 12.3075 8.69175 15 12.0008 15C15.3083 15 18.0007 12.3075 18.0007 9C18.0007 5.6925 15.3083 3 12.0008 3V3ZM18.0383 13.431L20.9062 19.125L16.8307 18.1065L15.0008 21L12.7957 16.4565C14.9437 16.2285 16.8188 15.0855 18.0383 13.431V13.431ZM5.96325 13.431C7.18125 15.0855 9.05475 16.2285 11.2043 16.4565L9.00075 21L7.17075 18.1065L3.09375 19.125L5.96325 13.431ZM11.9977 7.5C12.8272 7.5 13.4977 8.1705 13.4977 9C13.4977 9.8295 12.8272 10.5 11.9977 10.5C11.1697 10.5 10.4977 9.8295 10.4977 9C10.4977 8.1705 11.1697 7.5 11.9977 7.5Z" fill="#E91E63"/>
<path fill-rule="evenodd" clip-rule="evenodd" d="M0 0H24V24H0V0Z" fill="#E91E63"/>
</g>
</svg>
